<svg xmlns="http://www.w3.org/2000/svg" viewBox="0 0 80 80" width="80" height="80">
    <!-- Background circle for the icon -->
    <circle cx="40" cy="40" r="32" fill="#25c2a0" opacity="0.1"/>

    <!-- Main icon - abstract widget/gear shape -->
    <g transform="translate(40, 40)">
        <!-- Central hexagon -->
        <polygon points="-10,-8 10,-8 14,0 10,8 -10,8 -14,0" fill="#25c2a0"/>

        <!-- Surrounding connection points -->
        <circle cx="-22" cy="-15" r="4" fill="#25c2a0"/>
        <circle cx="22" cy="-15" r="4" fill="#25c2a0"/>
        <circle cx="-22" cy="15" r="4" fill="#25c2a0"/>
        <circle cx="22" cy="15" r="4" fill="#25c2a0"/>
        <circle cx="0" cy="-24" r="4" fill="#25c2a0"/>
        <circle cx="0" cy="24" r="4" fill="#25c2a0"/>

        <!-- Connection lines -->
        <line x1="-14" y1="-8" x2="-22" y2="-15" stroke="#25c2a0" stroke-width="2.5"/>
        <line x1="14" y1="-8" x2="22" y2="-15" stroke="#25c2a0" stroke-width="2.5"/>
        <line x1="-14" y1="8" x2="-22" y2="15" stroke="#25c2a0" stroke-width="2.5"/>
        <line x1="14" y1="8" x2="22" y2="15" stroke="#25c2a0" stroke-width="2.5"/>
        <line x1="0" y1="-8" x2="0" y2="-24" stroke="#25c2a0" stroke-width="2.5"/>
        <line x1="0" y1="8" x2="0" y2="24" stroke="#25c2a0" stroke-width="2.5"/>
    </g>
</svg>
